<?xml version="1.0" standalone="no"?>
<!DOCTYPE svg PUBLIC "-//W3C//DTD SVG 20010904//EN"
 "http://www.w3.org/TR/2001/REC-SVG-20010904/DTD/svg10.dtd">
<svg version="1.0" xmlns="http://www.w3.org/2000/svg"
 width="2048.000000pt" height="2048.000000pt" viewBox="0 0 2048.000000 2048.000000"
 preserveAspectRatio="xMidYMid meet">

<g transform="translate(0.000000,2048.000000) scale(0.100000,-0.100000)"
fill="#000000" stroke="none">
<path d="M9905 18283 c-759 -29 -1124 -126 -1680 -447 -484 -280 -873 -606
-1063 -890 -89 -133 -112 -178 -146 -283 -95 -301 -30 -651 179 -963 65 -97
270 -358 398 -505 236 -273 868 -964 954 -1044 165 -153 337 -258 520 -320
109 -36 300 -70 553 -96 329 -34 426 -59 466 -119 21 -32 41 -233 25 -249 -15
-15 -14 -37 2 -56 8 -10 18 -69 25 -151 22 -242 60 -445 163 -862 94 -384 129
-587 149 -878 13 -193 13 -290 -1 -290 -6 0 -111 18 -232 41 -226 41 -464 78
-662 101 -170 20 -806 17 -1010 -5 -722 -78 -1274 -202 -1760 -396 -345 -138
-594 -268 -1209 -630 -852 -502 -972 -583 -1259 -857 -94 -89 -108 -106 -105
-131 2 -21 9 -29 27 -31 19 -3 43 15 110 80 292 285 420 372 1376 933 521 306
772 434 1120 573 576 229 1404 384 2132 399 414 9 696 -19 1248 -120 l230 -42
-2 -585 c-1 -322 -6 -702 -12 -845 -24 -535 -30 -846 -22 -1089 8 -224 10
-251 27 -263 15 -11 21 -11 38 1 17 11 21 23 20 62 -8 275 -2 848 11 1124 8
184 18 614 22 956 l6 621 85 -20 c65 -15 90 -17 103 -8 14 8 20 7 27 -5 12
-21 14 -21 382 60 182 40 545 107 900 167 1174 196 1527 281 1899 455 214 101
363 222 513 415 92 118 357 516 573 859 220 352 350 546 446 670 92 119 252
284 330 341 49 36 59 49 57 69 -5 43 -49 39 -114 -10 -76 -57 -222 -207 -316
-324 -89 -111 -291 -413 -509 -761 -180 -289 -424 -654 -523 -783 -176 -229
-337 -347 -636 -465 -347 -136 -672 -209 -1730 -386 -610 -102 -1170 -214
-1259 -252 -17 -7 -26 -6 -35 4 -6 8 -45 22 -86 32 -41 9 -83 19 -92 22 -16 4
-18 17 -18 102 0 127 -16 329 -40 516 -22 162 -52 308 -155 735 -69 289 -107
499 -125 690 -6 63 -12 128 -14 144 -3 26 2 31 48 52 28 12 132 59 230 104 98
44 278 136 400 204 122 68 296 162 388 209 267 137 407 239 574 417 289 309
508 728 585 1120 54 271 18 883 -76 1300 -83 365 -263 834 -398 1035 -205 304
-610 496 -1147 545 -100 9 -704 11 -905 3z m1035 -97 c444 -68 777 -241 949
-495 128 -188 309 -661 385 -1002 79 -360 121 -839 97 -1117 -49 -562 -445
-1220 -911 -1514 -30 -19 -136 -76 -235 -128 -99 -51 -271 -144 -383 -207
-193 -107 -304 -162 -539 -266 l-102 -45 -6 66 c-14 156 -43 210 -137 258 -72
36 -148 51 -423 79 -384 39 -558 81 -731 175 -205 110 -292 192 -810 765 -388
429 -527 590 -675 780 -204 263 -276 389 -324 567 -72 271 -48 494 76 709 182
315 562 646 1089 951 507 294 824 389 1415 428 258 16 298 17 745 15 320 -2
439 -7 520 -19z"/>
<path d="M10167 8320 c-20 -16 -26 -32 -32 -82 -15 -141 -84 -385 -157 -553
-17 -38 -65 -140 -108 -225 -296 -592 -710 -1143 -1840 -2450 -555 -642 -799
-959 -1022 -1330 -289 -482 -449 -863 -518 -1237 -25 -135 -21 -157 28 -151
24 3 27 10 52 138 34 170 58 258 115 416 142 392 411 867 739 1304 115 155
413 515 691 835 442 510 660 771 931 1110 469 589 691 918 904 1345 135 268
220 504 250 695 20 122 18 117 40 105 34 -18 139 -120 219 -214 269 -314 646
-895 850 -1310 131 -266 205 -456 351 -906 67 -206 168 -517 225 -690 119
-362 244 -757 409 -1285 164 -528 207 -637 393 -985 40 -74 120 -241 178 -370
124 -275 160 -340 191 -340 12 0 28 7 35 16 11 14 7 27 -28 92 -23 43 -78 159
-122 259 -90 203 -141 308 -241 493 -124 228 -181 380 -355 940 -327 1056
-712 2230 -816 2487 -199 498 -645 1226 -1021 1666 -108 126 -188 198 -253
228 -51 23 -57 23 -88 -1z"/>
</g>
</svg>
